<svg xmlns="http://www.w3.org/2000/svg" viewBox="0 0 24 24" fill="currentColor">
    <path d="M12 2C6.48 2 2 6.48 2 12s4.48 10 10 10 10-4.48 10-10S17.52 2 12 2zm0 18c-4.41 0-8-3.59-8-8 0-1.12.23-2.18.65-3.15L9 13.2V15c0 .55.45 1 1 1h4c.55 0 1-.45 1-1v-1.8l4.35-4.35c.42.97.65 2.03.65 3.15 0 4.41-3.59 8-8 8z"/>
    <circle cx="8" cy="10" r="1.5"/>
    <circle cx="16" cy="10" r="1.5"/>
    <path d="M12 14c-1.1 0-2-.9-2-2h4c0 1.1-.9 2-2 2z"/>
    <path d="M12 4c-1.66 0-3 1.34-3 3v1h6V7c0-1.66-1.34-3-3-3z"/>
</svg>
